<?xml version="1.0"?>
<svg xmlns="http://www.w3.org/2000/svg" xmlns:xlink="http://www.w3.org/1999/xlink" version="1.1" width="320px" height="320px" viewBox="0 0 320 320"><rect x="0" y="0" width="320" height="320" fill="#ffffff" fill-opacity="1"/><path fill="#000000" fill-opacity="1" d="M15,15L85,15L85,25L15,25ZM115,15L125,15L125,25L115,25ZM135,15L145,15L145,25L135,25ZM195,15L205,15L205,25L195,25ZM235,15L305,15L305,25L235,25ZM15,25L25,25L25,35L15,35ZM75,25L85,25L85,35L75,35ZM95,25L105,25L105,35L95,35ZM115,25L125,25L125,35L115,35ZM145,25L155,25L155,35L145,35ZM165,25L205,25L205,35L165,35ZM215,25L225,25L225,35L215,35ZM235,25L245,25L245,35L235,35ZM295,25L305,25L305,35L295,35ZM15,35L25,35L25,45L15,45ZM35,35L65,35L65,45L35,45ZM75,35L85,35L85,45L75,45ZM135,35L145,35L145,45L135,45ZM155,35L165,35L165,45L155,45ZM185,35L215,35L215,45L185,45ZM235,35L245,35L245,45L235,45ZM255,35L285,35L285,45L255,45ZM295,35L305,35L305,45L295,45ZM15,45L25,45L25,55L15,55ZM35,45L65,45L65,55L35,55ZM75,45L85,45L85,55L75,55ZM95,45L125,45L125,55L95,55ZM135,45L145,45L145,55L135,55ZM155,45L195,45L195,55L155,55ZM215,45L225,45L225,55L215,55ZM235,45L245,45L245,55L235,55ZM255,45L285,45L285,55L255,55ZM295,45L305,45L305,55L295,55ZM15,55L25,55L25,65L15,65ZM35,55L65,55L65,65L35,65ZM75,55L85,55L85,65L75,65ZM105,55L115,55L115,65L105,65ZM155,55L185,55L185,65L155,65ZM235,55L245,55L245,65L235,65ZM255,55L285,55L285,65L255,65ZM295,55L305,55L305,65L295,65ZM15,65L25,65L25,75L15,75ZM75,65L85,65L85,75L75,75ZM95,65L115,65L115,75L95,75ZM125,65L155,65L155,75L125,75ZM185,65L195,65L195,75L185,75ZM215,65L225,65L225,75L215,75ZM235,65L245,65L245,75L235,75ZM295,65L305,65L305,75L295,75ZM15,75L85,75L85,85L15,85ZM95,75L105,75L105,85L95,85ZM115,75L125,75L125,85L115,85ZM135,75L145,75L145,85L135,85ZM155,75L165,75L165,85L155,85ZM175,75L185,75L185,85L175,85ZM195,75L205,75L205,85L195,85ZM215,75L225,75L225,85L215,85ZM235,75L305,75L305,85L235,85ZM105,85L135,85L135,95L105,95ZM155,85L165,85L165,95L155,95ZM205,85L215,85L215,95L205,95ZM15,95L65,95L65,105L15,105ZM75,95L115,95L115,105L75,105ZM125,95L135,95L135,105L125,105ZM145,95L205,95L205,105L145,105ZM225,95L235,95L235,105L225,105ZM245,95L255,95L255,105L245,105ZM265,95L275,95L275,105L265,105ZM285,95L295,95L295,105L285,105ZM15,105L25,105L25,115L15,115ZM35,105L45,105L45,115L35,115ZM95,105L105,105L105,115L95,115ZM115,105L125,105L125,115L115,115ZM135,105L145,105L145,115L135,115ZM155,105L175,105L175,115L155,115ZM195,105L205,105L205,115L195,115ZM255,105L275,105L275,115L255,115ZM285,105L295,105L295,115L285,115ZM15,115L45,115L45,125L15,125ZM75,115L85,115L85,125L75,125ZM95,115L105,115L105,125L95,125ZM115,115L125,115L125,125L115,125ZM145,115L155,115L155,125L145,125ZM165,115L195,115L195,125L165,125ZM215,115L225,115L225,125L215,125ZM265,115L285,115L285,125L265,125ZM15,125L25,125L25,135L15,135ZM55,125L75,125L75,135L55,135ZM135,125L185,125L185,135L135,135ZM195,125L215,125L215,135L195,135ZM225,125L275,125L275,135L225,135ZM295,125L305,125L305,135L295,135ZM45,135L125,135L125,145L45,145ZM135,135L145,135L145,145L135,145ZM165,135L185,135L185,145L165,145ZM235,135L255,135L255,145L235,145ZM25,145L35,145L35,155L25,155ZM45,145L55,145L55,155L45,155ZM165,145L185,145L185,155L165,155ZM225,145L235,145L235,155L225,155ZM255,145L275,145L275,155L255,155ZM285,145L295,145L295,155L285,155ZM15,155L25,155L25,165L15,165ZM35,155L55,155L55,165L35,165ZM75,155L95,155L95,165L75,165ZM105,155L145,155L145,165L105,165ZM165,155L175,155L175,165L165,165ZM185,155L195,155L195,165L185,165ZM205,155L225,155L225,165L205,165ZM265,155L305,155L305,165L265,165ZM15,165L35,165L35,175L15,175ZM55,165L65,165L65,175L55,175ZM85,165L95,165L95,175L85,175ZM115,165L135,165L135,175L115,175ZM165,165L185,165L185,175L165,175ZM205,165L215,165L215,175L205,175ZM225,165L265,165L265,175L225,175ZM285,165L305,165L305,175L285,175ZM45,175L55,175L55,185L45,185ZM65,175L105,175L105,185L65,185ZM125,175L135,175L135,185L125,185ZM165,175L185,175L185,185L165,185ZM195,175L205,175L205,185L195,185ZM225,175L255,175L255,185L225,185ZM15,185L25,185L25,195L15,195ZM65,185L75,185L75,195L65,195ZM105,185L115,185L115,195L105,195ZM135,185L155,185L155,195L135,195ZM175,185L185,185L185,195L175,195ZM195,185L215,185L215,195L195,195ZM225,185L235,185L235,195L225,195ZM245,185L255,185L255,195L245,195ZM285,185L305,185L305,195L285,195ZM15,195L25,195L25,205L15,205ZM45,195L55,195L55,205L45,205ZM75,195L95,195L95,205L75,205ZM145,195L165,195L165,205L145,205ZM185,195L195,195L195,205L185,205ZM205,195L225,195L225,205L205,205ZM265,195L285,195L285,205L265,205ZM15,205L25,205L25,215L15,215ZM35,205L55,205L55,215L35,215ZM65,205L75,205L75,215L65,215ZM135,205L155,205L155,215L135,215ZM185,205L215,205L215,215L185,215ZM225,205L265,205L265,215L225,215ZM275,205L305,205L305,215L275,215ZM15,215L25,215L25,225L15,225ZM35,215L45,215L45,225L35,225ZM75,215L125,215L125,225L75,225ZM135,215L145,215L145,225L135,225ZM155,215L175,215L175,225L155,225ZM185,215L195,215L195,225L185,225ZM215,215L265,215L265,225L215,225ZM275,215L295,215L295,225L275,225ZM95,225L105,225L105,235L95,235ZM215,225L225,225L225,235L215,235ZM255,225L265,225L265,235L255,235ZM285,225L295,225L295,235L285,235ZM15,235L85,235L85,245L15,245ZM95,235L105,235L105,245L95,245ZM125,235L145,235L145,245L125,245ZM165,235L195,235L195,245L165,245ZM215,235L225,235L225,245L215,245ZM235,235L245,235L245,245L235,245ZM255,235L265,235L265,245L255,245ZM275,235L285,235L285,245L275,245ZM15,245L25,245L25,255L15,255ZM75,245L85,245L85,255L75,255ZM105,245L115,245L115,255L105,255ZM125,245L135,245L135,255L125,255ZM155,245L165,245L165,255L155,255ZM175,245L185,245L185,255L175,255ZM205,245L225,245L225,255L205,255ZM255,245L305,245L305,255L255,255ZM15,255L25,255L25,265L15,265ZM35,255L65,255L65,265L35,265ZM75,255L85,255L85,265L75,265ZM95,255L115,255L115,265L95,265ZM125,255L135,255L135,265L125,265ZM165,255L205,255L205,265L165,265ZM215,255L305,255L305,265L215,265ZM15,265L25,265L25,275L15,275ZM35,265L65,265L65,275L35,275ZM75,265L85,265L85,275L75,275ZM95,265L105,265L105,275L95,275ZM115,265L125,265L125,275L115,275ZM135,265L175,265L175,275L135,275ZM195,265L225,265L225,275L195,275ZM235,265L245,265L245,275L235,275ZM255,265L265,265L265,275L255,275ZM15,275L25,275L25,285L15,285ZM35,275L65,275L65,285L35,285ZM75,275L85,275L85,285L75,285ZM95,275L125,275L125,285L95,285ZM145,275L175,275L175,285L145,285ZM185,275L195,275L195,285L185,285ZM205,275L215,275L215,285L205,285ZM235,275L255,275L255,285L235,285ZM275,275L295,275L295,285L275,285ZM15,285L25,285L25,295L15,295ZM75,285L85,285L85,295L75,295ZM95,285L105,285L105,295L95,295ZM135,285L155,285L155,295L135,295ZM175,285L185,285L185,295L175,295ZM205,285L225,285L225,295L205,295ZM265,285L285,285L285,295L265,295ZM295,285L305,285L305,295L295,295ZM15,295L85,295L85,305L15,305ZM95,295L125,295L125,305L95,305ZM135,295L145,295L145,305L135,305ZM155,295L175,295L175,305L155,305ZM235,295L285,295L285,305L235,305Z"/></svg>
